<svg width="437" height="71" viewBox="0 0 437 71" version="1.1" xmlns="http://www.w3.org/2000/svg" xmlns:xlink="http://www.w3.org/1999/xlink">
<title>Group 20.2</title>
<desc>Created using Figma</desc>
<g id="Canvas" transform="translate(-1529 266)">
<g id="Group 20.2">
<g id="Subtract">
<use xlink:href="#path0_fill" transform="translate(1537.1 -227.27)" fill="#414449"/>
</g>
<g id="Subtract">
<use xlink:href="#path1_fill" transform="matrix(-0.999986 0.00538815 -0.00543965 -0.999985 1563.67 -239.772)" fill="#414449"/>
</g>
<g id="Subtract">
<use xlink:href="#path2_fill" transform="translate(1529 -266)" fill="#664EA4"/>
</g>
</g>
</g>
<defs>
<path id="path0_fill" d="M 14.6765 24.2705C 22.6576 24.2705 29.1276 19.9776 29.1276 14.6821C 29.1276 13.6133 29.6348 15.9735 29.1276 14.6821L 0.225431 14.6821C -0.281781 15.9735 0.225431 13.6133 0.225431 14.6821C 0.225431 19.9776 6.69542 24.2705 14.6765 24.2705Z"/>
<path id="path1_fill" d="M 0 9.54501C 0.580104 4.22549 6.13938 -0.0336695 12.4287 0.000200613C 18.718 0.0340707 23.8388 5.60502 23.4823 9.67154L 0 9.54501Z"/>
<path id="path2_fill" fill-rule="evenodd" d="M 22.9839 0C 27.286 0 31.2345 1.02644 34.8295 3.07931C 38.4243 5.13218 41.0763 7.59562 42.7854 10.4696C 43.0211 10.8802 43.139 11.3494 43.139 11.8773C 43.139 12.3465 42.9917 12.7865 42.697 13.197C 42.4613 13.549 42.1077 13.8422 41.6362 14.0768C 41.4005 14.1941 41.0469 14.2528 40.5754 14.2528C 39.5146 14.2528 38.6896 13.8129 38.1002 12.9331C 34.6232 7.83023 29.5844 5.27881 22.9839 5.27881C 18.0924 5.27881 14.2618 6.39323 11.4919 8.62206C 8.78101 10.7922 7.42554 13.8422 7.42554 17.772C 7.42554 21.0566 8.78101 23.8133 11.4919 26.0421C 13.8053 27.9441 17.1917 29.3763 21.6509 30.3386L 21.6509 35.4782C 15.8208 34.444 11.1675 32.413 7.6908 29.3854C 3.97803 26.0421 2.12158 21.995 2.12158 17.2441C 2.12158 13.8422 2.97607 10.8509 4.68518 8.27013C 6.45312 5.63073 8.89893 3.60719 12.0223 2.1995C 15.2047 0.73317 18.8586 0 22.9839 0ZM 24.0537 35.8514C 29.2095 36.6685 33.1255 38.3256 35.8019 40.8228C 38.6896 43.4035 40.1334 46.6881 40.1334 50.6766C 40.1334 55.3102 38.6602 58.8881 35.7135 61.4102C 32.8257 63.9323 28.8478 65.1933 23.7795 65.1933C 19.3595 65.1933 15.5583 64.4015 12.376 62.8178C 9.25244 61.1756 6.89514 58.8881 5.30396 55.9554C 4.77356 54.841 3.91907 54.2838 2.74036 54.2838C 1.91528 54.2838 1.23755 54.5184 0.707153 54.9876C 0.235718 55.4568 0 56.0434 0 56.7472C 0 57.0991 0.0883789 57.451 0.265259 57.803C 2.26892 61.7328 5.30396 64.8414 9.37036 67.1289C 13.4368 69.3577 18.2397 70.4721 23.7795 70.4721C 28.0817 70.4721 31.8533 69.6803 35.0946 68.0967C 38.3949 66.513 40.9291 64.2255 42.697 61.2342C 44.5239 58.2429 45.4374 54.7237 45.4374 50.6766C 45.4374 45.2805 43.7284 40.9401 40.3102 37.6555C 36.8934 34.3136 31.4746 32.0266 24.0537 30.7946L 24.0537 35.8514ZM 111.875 65.8092C 112.051 66.1611 112.14 66.5423 112.14 66.9529C 112.14 67.6568 111.875 68.2726 111.344 68.8005C 110.814 69.3284 110.195 69.5923 109.488 69.5923C 108.309 69.5923 107.484 69.0351 107.013 67.9207L 100.471 52.3482L 64.4923 52.3482L 57.9508 67.9207C 57.5382 69.0351 56.7131 69.5923 55.4756 69.5923C 54.6505 69.5923 54.0023 69.3284 53.5308 68.8005C 53.0593 68.2726 52.8236 67.6568 52.8236 66.9529C 52.8236 66.5423 52.912 66.1611 53.0887 65.8092L 79.8739 2.72739C 80.3453 1.49567 81.1998 0.879799 82.4375 0.879799C 83.6161 0.879799 84.4707 1.49567 85.0011 2.72739L 111.875 65.8092ZM 98.4379 47.5973L 82.4375 9.58984L 66.5255 47.5973L 98.4379 47.5973ZM 161.648 1.58364C 161.235 1.11442 160.675 0.879799 159.968 0.879799L 109.934 0.879799C 109.227 0.879799 108.637 1.11442 108.166 1.58364C 107.753 1.99422 107.547 2.55142 107.547 3.25526C 107.547 3.95911 107.753 4.54565 108.166 5.01487C 108.637 5.42545 109.227 5.63073 109.934 5.63073L 132.299 5.63073L 132.299 66.9529C 132.299 67.7154 132.535 68.3606 133.006 68.8885C 133.537 69.3577 134.185 69.5923 134.951 69.5923C 135.717 69.5923 136.336 69.3577 136.807 68.8885C 137.338 68.3606 137.603 67.7154 137.603 66.9529L 137.603 5.63073L 159.968 5.63073C 160.675 5.63073 161.235 5.42545 161.648 5.01487C 162.119 4.54565 162.355 3.95911 162.355 3.25526C 162.355 2.55142 162.119 1.99422 161.648 1.58364ZM 172.555 3.5192C 172.555 2.69806 172.791 2.05287 173.263 1.58364C 173.793 1.11442 174.441 0.879799 175.207 0.879799C 176.032 0.879799 176.681 1.11442 177.152 1.58364C 177.624 2.05287 177.859 2.69806 177.859 3.5192L 177.859 47.1574C 177.859 50.7352 178.743 53.9319 180.511 56.7472C 182.338 59.5626 184.843 61.7621 188.025 63.3457C 191.267 64.9294 194.95 65.7212 199.075 65.7212C 203.201 65.7212 206.854 64.9294 210.037 63.3457C 213.278 61.7621 215.812 59.5626 217.639 56.7472C 219.466 53.9319 220.38 50.7352 220.38 47.1574L 220.38 3.5192C 220.38 2.69806 220.615 2.05287 221.087 1.58364C 221.617 1.11442 222.265 0.879799 223.031 0.879799C 223.857 0.879799 224.505 1.11442 224.976 1.58364C 225.448 2.05287 225.683 2.69806 225.683 3.5192L 225.683 47.1574C 225.683 51.791 224.534 55.9261 222.236 59.5626C 219.996 63.1404 216.844 65.9558 212.777 68.0087C 208.77 70.0029 204.202 71 199.075 71C 193.948 71 189.351 70.0029 185.285 68.0087C 181.277 65.9558 178.154 63.1404 175.915 59.5626C 173.675 55.9261 172.555 51.791 172.555 47.1574L 172.555 3.5192ZM 286.041 67.5688C 286.041 67.0409 285.805 66.3664 285.334 65.5452L 270.129 41.3507C 274.667 40.0603 278.262 37.6848 280.914 34.2243C 283.625 30.7051 284.98 26.5407 284.98 21.7311C 284.98 17.684 284.037 14.0768 282.151 10.9095C 280.266 7.74226 277.643 5.27881 274.284 3.5192C 270.925 1.75961 267.124 0.879799 262.88 0.879799L 245.996 0.879799C 245.23 0.879799 244.582 1.11442 244.051 1.58364C 243.58 2.05287 243.344 2.69806 243.344 3.5192L 243.344 66.9529C 243.344 67.7154 243.58 68.3606 244.051 68.8885C 244.582 69.3577 245.23 69.5923 245.996 69.5923C 246.821 69.5923 247.469 69.3577 247.941 68.8885C 248.412 68.3606 248.648 67.7154 248.648 66.9529L 248.648 42.3185L 262.88 42.3185L 264.472 42.3185L 280.737 68.1846C 281.032 68.6539 281.356 69.0058 281.709 69.2404C 282.063 69.475 282.535 69.5923 283.124 69.5923C 284.067 69.5923 284.774 69.4164 285.245 69.0644C 285.776 68.7125 286.041 68.214 286.041 67.5688ZM 271.544 35.1041C 269.009 36.3945 266.122 37.0397 262.88 37.0397L 248.648 37.0397L 248.648 6.15862L 262.88 6.15862C 266.122 6.15862 269.009 6.83313 271.544 8.18216C 274.078 9.47253 276.052 11.3201 277.466 13.7249C 278.94 16.071 279.676 18.7398 279.676 21.7311C 279.676 24.6638 278.94 27.3032 277.466 29.6493C 276.052 31.9955 274.078 33.8137 271.544 35.1041ZM 346.719 3.5192C 346.719 2.75671 346.954 2.14085 347.426 1.67162C 347.956 1.14375 348.604 0.879799 349.37 0.879799C 350.078 0.879799 350.696 1.14375 351.227 1.67162C 351.757 2.14085 352.022 2.75671 352.022 3.5192L 352.022 66.9529C 352.022 67.7154 351.757 68.3606 351.227 68.8885C 350.696 69.3577 350.078 69.5923 349.37 69.5923C 348.545 69.5923 347.897 69.3284 347.426 68.8005L 302.43 10.5576L 302.43 66.9529C 302.43 67.7154 302.165 68.3606 301.635 68.8885C 301.163 69.3577 300.544 69.5923 299.778 69.5923C 299.012 69.5923 298.364 69.3577 297.833 68.8885C 297.362 68.3606 297.126 67.7154 297.126 66.9529L 297.126 3.5192C 297.126 2.75671 297.362 2.14085 297.833 1.67162C 298.364 1.14375 299.012 0.879799 299.778 0.879799C 300.603 0.879799 301.281 1.17307 301.811 1.75961L 346.719 59.9145L 346.719 3.5192ZM 419.585 4.66295C 414.222 1.55431 408.241 0 401.64 0C 394.981 0 388.94 1.55431 383.518 4.66295C 378.155 7.71293 373.912 11.936 370.789 17.3321C 367.724 22.6696 366.192 28.6229 366.192 35.1921C 366.192 41.8199 367.724 47.8319 370.789 53.228C 373.912 58.5655 378.155 62.7885 383.518 65.8972C 388.94 68.9471 394.981 70.4721 401.64 70.4721C 408.241 70.4721 414.222 68.9471 419.585 65.8972C 425.007 62.7885 429.25 58.5655 432.315 53.228C 435.438 47.8319 437 41.8199 437 35.1921C 437 28.6229 435.438 22.6696 432.315 17.3321C 429.25 11.936 425.007 7.71293 419.585 4.66295ZM 386.259 9.23792C 390.855 6.59851 395.983 5.27881 401.64 5.27881C 407.239 5.27881 412.337 6.59851 416.933 9.23792C 421.53 11.8187 425.125 15.3965 427.718 19.9715C 430.37 24.5465 431.696 29.62 431.696 35.1921C 431.696 40.8228 430.37 45.9257 427.718 50.5006C 425.125 55.0756 421.53 58.6828 416.933 61.3222C 412.337 63.9029 407.239 65.1933 401.64 65.1933C 395.983 65.1933 390.855 63.9029 386.259 61.3222C 381.662 58.6828 378.037 55.0756 375.385 50.5006C 372.792 45.9257 371.496 40.8228 371.496 35.1921C 371.496 29.62 372.792 24.5465 375.385 19.9715C 378.037 15.3965 381.662 11.8187 386.259 9.23792Z"/>
</defs>
</svg>
