<svg width="436" height="72" viewBox="0 0 436 72" version="1.1" xmlns="http://www.w3.org/2000/svg" xmlns:xlink="http://www.w3.org/1999/xlink">
<title>Group</title>
<desc>Created using Figma</desc>
<g id="Canvas" transform="translate(-1786 4196)">
<g id="Group">
<g id="Subtract">
<use xlink:href="#path0_fill" transform="translate(1794.08 -4156.72)" fill="#414449"/>
</g>
<g id="Subtract">
<use xlink:href="#path1_fill" transform="matrix(-0.999985 0.00547657 -0.00535182 -0.999986 1820.59 -4169.4)" fill="#414449"/>
</g>
<g id="SATURNO">
<use xlink:href="#path2_fill" transform="translate(1786 -4196)" fill="#664EA4"/>
<use xlink:href="#path3_fill" transform="translate(1786 -4196)" fill="#664EA4"/>
<use xlink:href="#path4_fill" transform="translate(1786 -4196)" fill="#664EA4"/>
<use xlink:href="#path5_fill" transform="translate(1786 -4196)" fill="#664EA4"/>
<use xlink:href="#path6_fill" transform="translate(1786 -4196)" fill="#664EA4"/>
<use xlink:href="#path7_fill" transform="translate(1786 -4196)" fill="#664EA4"/>
<use xlink:href="#path8_fill" transform="translate(1786 -4196)" fill="#664EA4"/>
</g>
</g>
</g>
<defs>
<path id="path0_fill" d="M 14.6429 24.6123C 22.6057 24.6123 29.0609 20.259 29.0609 14.8889C 29.0609 13.8051 29.567 16.1984 29.0609 14.8889L 0.224915 14.8889C -0.281136 16.1984 0.224915 13.8051 0.224915 14.8889C 0.224915 20.259 6.6801 24.6123 14.6429 24.6123Z"/>
<path id="path1_fill" d="M 0 9.67944C 0.578777 4.28501 6.12533 -0.0341437 12.4003 0.000203439C 18.6752 0.0345505 23.7843 5.68396 23.4286 9.80776L 0 9.67944Z"/>
<path id="path2_fill" d="M 22.9313 0C 27.2236 0 31.1631 1.04089 34.7497 3.12268C 38.3364 5.20446 40.9824 7.7026 42.6875 10.6171C 42.9227 11.0335 43.0403 11.5093 43.0403 12.0446C 43.0403 12.5204 42.8933 12.9665 42.5993 13.3829C 42.3641 13.7398 42.0113 14.0372 41.5409 14.2751C 41.3057 14.3941 40.953 14.4535 40.4826 14.4535C 39.4242 14.4535 38.601 14.0074 38.013 13.1152C 34.5439 7.94052 29.5167 5.35316 22.9313 5.35316C 18.051 5.35316 14.2292 6.48327 11.4657 8.74349C 8.76093 10.9442 7.40857 14.0372 7.40857 18.0223C 7.40857 21.3532 8.76093 24.1487 11.4657 26.4089C 14.1704 28.6691 18.345 30.2751 23.9897 31.2268C 31.3982 32.4758 36.8077 34.7955 40.218 38.1859C 43.6283 41.5167 45.3334 45.9182 45.3334 51.3903C 45.3334 55.4944 44.4221 59.0632 42.5993 62.0967C 40.8354 65.1301 38.307 67.4498 35.0143 69.0558C 31.7804 70.6617 28.0173 71.4647 23.7251 71.4647C 18.198 71.4647 13.406 70.3346 9.34892 68.0744C 5.29184 65.7547 2.26373 62.6022 0.264592 58.6171C 0.0881971 58.2602 0 57.9033 0 57.5465C 0 56.8327 0.235193 56.2379 0.705578 55.7621C 1.23476 55.2863 1.91094 55.0483 2.73412 55.0483C 3.91008 55.0483 4.76266 55.6134 5.29184 56.7435C 6.87939 59.7175 9.23132 62.0372 12.3476 63.7026C 15.5227 65.3085 19.3152 66.1115 23.7251 66.1115C 28.7817 66.1115 32.7506 64.8327 35.6317 62.2751C 38.5716 59.7175 40.0416 56.0892 40.0416 51.3903C 40.0416 47.3457 38.601 44.0149 35.7199 41.3978C 32.8976 38.7212 28.6935 36.9963 23.1077 36.223C 16.5811 35.2714 11.4363 33.1301 7.67317 29.7993C 3.96888 26.4089 2.11674 22.3048 2.11674 17.487C 2.11674 14.0372 2.96931 11.0037 4.67446 8.38662C 6.4384 5.71004 8.87853 3.65799 11.9948 2.23048C 15.1699 0.743494 18.8154 0 22.9313 0Z"/>
<path id="path3_fill" d="M 111.619 66.7361C 111.795 67.0929 111.883 67.4796 111.883 67.8959C 111.883 68.6097 111.619 69.2342 111.089 69.7695C 110.56 70.3048 109.943 70.5725 109.237 70.5725C 108.061 70.5725 107.238 70.0074 106.768 68.8773L 100.241 53.0855L 64.3448 53.0855L 57.8182 68.8773C 57.4066 70.0074 56.5834 70.5725 55.3486 70.5725C 54.5255 70.5725 53.8787 70.3048 53.4083 69.7695C 52.9379 69.2342 52.7027 68.6097 52.7027 67.8959C 52.7027 67.4796 52.7909 67.0929 52.9673 66.7361L 79.6911 2.7658C 80.1615 1.51673 81.0141 0.892193 82.2488 0.892193C 83.4248 0.892193 84.2774 1.51673 84.8065 2.7658L 111.619 66.7361ZM 98.2125 48.2677L 82.2488 9.72491L 66.3733 48.2677L 98.2125 48.2677Z"/>
<path id="path4_fill" d="M 159.602 0.892193C 160.308 0.892193 160.866 1.13011 161.278 1.60595C 161.748 2.0223 161.983 2.58736 161.983 3.30112C 161.983 4.01487 161.748 4.60967 161.278 5.0855C 160.866 5.50186 160.308 5.71004 159.602 5.71004L 137.288 5.71004L 137.288 67.8959C 137.288 68.6691 137.023 69.3234 136.494 69.8587C 136.024 70.3346 135.407 70.5725 134.642 70.5725C 133.878 70.5725 133.231 70.3346 132.702 69.8587C 132.231 69.3234 131.996 68.6691 131.996 67.8959L 131.996 5.71004L 109.682 5.71004C 108.977 5.71004 108.389 5.50186 107.918 5.0855C 107.507 4.60967 107.301 4.01487 107.301 3.30112C 107.301 2.58736 107.507 2.0223 107.918 1.60595C 108.389 1.13011 108.977 0.892193 109.682 0.892193L 159.602 0.892193Z"/>
<path id="path5_fill" d="M 172.16 3.56877C 172.16 2.73606 172.396 2.08178 172.866 1.60595C 173.395 1.13011 174.042 0.892193 174.806 0.892193C 175.63 0.892193 176.276 1.13011 176.747 1.60595C 177.217 2.08178 177.452 2.73606 177.452 3.56877L 177.452 47.8216C 177.452 51.4498 178.334 54.6915 180.098 57.5465C 181.921 60.4015 184.42 62.632 187.595 64.2379C 190.829 65.8439 194.504 66.6468 198.62 66.6468C 202.736 66.6468 206.381 65.8439 209.556 64.2379C 212.79 62.632 215.318 60.4015 217.141 57.5465C 218.964 54.6915 219.875 51.4498 219.875 47.8216L 219.875 3.56877C 219.875 2.73606 220.11 2.08178 220.581 1.60595C 221.11 1.13011 221.757 0.892193 222.521 0.892193C 223.344 0.892193 223.991 1.13011 224.461 1.60595C 224.932 2.08178 225.167 2.73606 225.167 3.56877L 225.167 47.8216C 225.167 52.5204 224.02 56.7138 221.727 60.4015C 219.493 64.0297 216.347 66.8848 212.29 68.9665C 208.292 70.9889 203.735 72 198.62 72C 193.504 72 188.918 70.9889 184.861 68.9665C 180.863 66.8848 177.746 64.0297 175.512 60.4015C 173.278 56.7138 172.16 52.5204 172.16 47.8216L 172.16 3.56877Z"/>
<path id="path6_fill" d="M 284.681 66.4684C 285.151 67.3011 285.387 67.9851 285.387 68.5205C 285.387 69.1747 285.122 69.6803 284.593 70.0372C 284.122 70.3941 283.417 70.5725 282.476 70.5725C 281.888 70.5725 281.418 70.4535 281.065 70.2156C 280.712 69.9777 280.389 69.6208 280.095 69.145L 263.866 42.9145L 262.279 42.9145L 248.079 42.9145L 248.079 67.8959C 248.079 68.6691 247.844 69.3234 247.373 69.8587C 246.903 70.3346 246.256 70.5725 245.433 70.5725C 244.669 70.5725 244.022 70.3346 243.493 69.8587C 243.022 69.3234 242.787 68.6691 242.787 67.8959L 242.787 3.56877C 242.787 2.73606 243.022 2.08178 243.493 1.60595C 244.022 1.13011 244.669 0.892193 245.433 0.892193L 262.279 0.892193C 266.512 0.892193 270.305 1.78439 273.656 3.56877C 277.008 5.35316 279.624 7.8513 281.506 11.0632C 283.387 14.2751 284.328 17.9331 284.328 22.0372C 284.328 26.9145 282.976 31.1375 280.271 34.7063C 277.625 38.2156 274.038 40.6245 269.511 41.9331L 284.681 66.4684ZM 262.279 37.5613C 265.513 37.5613 268.394 36.9071 270.922 35.5985C 273.451 34.29 275.42 32.4461 276.831 30.0669C 278.301 27.6877 279.036 25.0112 279.036 22.0372C 279.036 19.0037 278.301 16.2974 276.831 13.9182C 275.42 11.4796 273.451 9.60595 270.922 8.2974C 268.394 6.92937 265.513 6.24535 262.279 6.24535L 248.079 6.24535L 248.079 37.5613L 262.279 37.5613Z"/>
<path id="path7_fill" d="M 345.925 3.56877C 345.925 2.79554 346.16 2.171 346.631 1.69517C 347.16 1.15985 347.807 0.892193 348.571 0.892193C 349.277 0.892193 349.894 1.15985 350.423 1.69517C 350.952 2.171 351.217 2.79554 351.217 3.56877L 351.217 67.8959C 351.217 68.6691 350.952 69.3234 350.423 69.8587C 349.894 70.3346 349.277 70.5725 348.571 70.5725C 347.748 70.5725 347.101 70.3048 346.631 69.7695L 301.738 10.7063L 301.738 67.8959C 301.738 68.6691 301.474 69.3234 300.944 69.8587C 300.474 70.3346 299.857 70.5725 299.092 70.5725C 298.328 70.5725 297.681 70.3346 297.152 69.8587C 296.682 69.3234 296.446 68.6691 296.446 67.8959L 296.446 3.56877C 296.446 2.79554 296.682 2.171 297.152 1.69517C 297.681 1.15985 298.328 0.892193 299.092 0.892193C 299.915 0.892193 300.592 1.18959 301.121 1.78439L 345.925 60.7584L 345.925 3.56877Z"/>
<path id="path8_fill" d="M 400.721 0C 407.306 0 413.274 1.57621 418.625 4.72863C 424.035 7.82156 428.268 12.1041 431.326 17.5762C 434.442 22.9888 436 29.026 436 35.6877C 436 42.4089 434.442 48.5056 431.326 53.9777C 428.268 59.3903 424.035 63.6729 418.625 66.8253C 413.274 69.9182 407.306 71.4647 400.721 71.4647C 394.077 71.4647 388.05 69.9182 382.641 66.8253C 377.29 63.6729 373.057 59.3903 369.94 53.9777C 366.883 48.5056 365.354 42.4089 365.354 35.6877C 365.354 29.026 366.883 22.9888 369.94 17.5762C 373.057 12.1041 377.29 7.82156 382.641 4.72863C 388.05 1.57621 394.077 0 400.721 0ZM 400.721 5.35316C 395.076 5.35316 389.961 6.69145 385.375 9.36803C 380.788 11.9851 377.172 15.6134 374.526 20.2528C 371.939 24.8922 370.646 30.0372 370.646 35.6877C 370.646 41.3978 371.939 46.5725 374.526 51.2119C 377.172 55.8513 380.788 59.5093 385.375 62.1859C 389.961 64.803 395.076 66.1115 400.721 66.1115C 406.307 66.1115 411.393 64.803 415.979 62.1859C 420.565 59.5093 424.152 55.8513 426.739 51.2119C 429.385 46.5725 430.708 41.3978 430.708 35.6877C 430.708 30.0372 429.385 24.8922 426.739 20.2528C 424.152 15.6134 420.565 11.9851 415.979 9.36803C 411.393 6.69145 406.307 5.35316 400.721 5.35316Z"/>
</defs>
</svg>
